<svg width="54" height="57" viewBox="0 0 54 57" fill="none" xmlns="http://www.w3.org/2000/svg">
<path d="M18.588 32.233C14.74 32.233 11.611 35.362 11.611 39.21C11.611 43.056 14.74 46.185 18.588 46.185C22.436 46.185 25.565 43.056 25.565 39.21C25.564 35.362 22.436 32.233 18.588 32.233ZM18.588 42.784C16.615 42.784 15.012 41.18 15.012 39.21C15.012 37.237 16.616 35.632 18.588 35.632C20.56 35.632 22.166 37.237 22.166 39.21C22.166 41.181 20.561 42.784 18.588 42.784Z" fill="#4D3EFC"/>
<path d="M30.744 25.212L26.047 27.927C25.592 27.626 25.119 27.353 24.629 27.109V21.679H12.549V27.111C12.106 27.332 11.676 27.576 11.26 27.845L6.58804 25.075L0.430038 35.468L5.10004 38.234C5.07104 38.572 5.05704 38.896 5.05704 39.211C5.05704 39.477 5.06704 39.75 5.08804 40.033L0.389038 42.746L6.43004 53.209L11.133 50.492C11.586 50.793 12.061 51.064 12.549 51.308V56.738H24.629V51.308C25.07 51.087 25.5 50.841 25.918 50.574L30.588 53.342L36.746 42.949L32.08 40.183C32.107 39.849 32.121 39.529 32.121 39.21C32.121 38.94 32.111 38.669 32.092 38.388L36.789 35.675L30.744 25.212ZM28.426 36.577L28.598 37.722C28.682 38.288 28.721 38.763 28.721 39.21C28.721 39.69 28.676 40.2 28.578 40.815L28.398 41.954L32.087 44.14L29.394 48.683L25.705 46.494L24.789 47.207C24.031 47.797 23.195 48.275 22.305 48.627L21.229 49.051V53.34H15.948V49.053L14.874 48.627C13.942 48.26 13.073 47.758 12.296 47.139L11.39 46.416L7.67704 48.562L5.03404 43.99L8.75104 41.842L8.58104 40.699C8.49904 40.144 8.45804 39.658 8.45804 39.211C8.45804 38.721 8.50304 38.211 8.59904 37.604L8.77904 36.463L5.09104 34.277L7.78004 29.734L11.473 31.925L12.387 31.212C13.145 30.622 13.981 30.144 14.873 29.79L15.947 29.366V25.079H21.228V29.368L22.304 29.792C23.238 30.159 24.103 30.661 24.882 31.28L25.788 32.001L29.503 29.856L32.144 34.428L28.426 36.577Z" fill="#4D3EFC"/>
<path d="M38.742 8.724C35.594 8.724 33.035 11.283 33.035 14.431C33.035 17.581 35.594 20.142 38.742 20.142C41.888 20.142 44.451 17.581 44.451 14.431C44.451 11.282 41.889 8.724 38.742 8.724ZM38.742 16.741C37.471 16.741 36.433 15.706 36.433 14.43C36.433 13.159 37.47 12.123 38.742 12.123C40.015 12.123 41.051 13.158 41.051 14.43C41.051 15.706 40.016 16.741 38.742 16.741Z" fill="#4D3EFC"/>
<path d="M48.129 3.24099L44.418 5.38199C44.197 5.24299 43.971 5.11199 43.74 4.99099V0.705994H33.744V4.98899C33.547 5.09399 33.355 5.20399 33.168 5.31699L29.482 3.13499L24.388 11.733L28.068 13.913C28.058 14.089 28.054 14.261 28.054 14.431C28.054 14.562 28.056 14.695 28.062 14.827L24.357 16.966L29.355 25.624L33.066 23.479C33.287 23.618 33.511 23.749 33.744 23.87V28.155H43.74V23.872C43.935 23.768 44.127 23.659 44.314 23.544L48 25.728L53.096 17.128L49.416 14.948C49.426 14.774 49.432 14.602 49.432 14.43C49.432 14.299 49.428 14.166 49.424 14.032L53.127 11.895L48.129 3.24099ZM45.939 13.36C45.994 13.712 46.031 14.065 46.031 14.43C46.031 14.784 45.998 15.159 45.929 15.575L45.74 16.721L48.437 18.321L46.808 21.069L44.109 19.471L43.195 20.188C42.662 20.606 42.062 20.95 41.414 21.206L40.34 21.632V24.755H37.143V21.632L36.071 21.206C35.401 20.94 34.774 20.579 34.212 20.134L33.308 19.415L30.6 20.978L29.002 18.212L31.721 16.644L31.543 15.494C31.49 15.146 31.453 14.795 31.453 14.431C31.453 14.038 31.496 13.656 31.557 13.277L31.741 12.136L29.048 10.542L30.677 7.79399L33.372 9.39199L34.286 8.67499C34.827 8.25299 35.427 7.90899 36.069 7.65499L37.143 7.231V4.106H40.34V7.22899L41.412 7.65299C42.086 7.92299 42.711 8.28399 43.269 8.72699L44.173 9.44599L46.882 7.88299L48.482 10.651L45.769 12.215L45.939 13.36Z" fill="#4D3EFC"/>
</svg>
