<svg width="204" height="226" viewBox="0 0 204 226" fill="none" xmlns="http://www.w3.org/2000/svg">
<path d="M189.745 46.0256L116.349 3.80201C107.532 -1.27392 96.6356 -1.27392 87.8182 3.80201L14.4231 46.0256C5.60568 51.1015 0.169006 60.5021 0.169006 70.654V155.101C0.169006 165.253 5.60568 174.654 14.4231 179.73L87.8182 221.931C96.6356 227.007 107.532 227.007 116.349 221.931L189.745 179.707C198.561 174.631 203.998 165.253 203.998 155.078V70.6312C204.021 60.5021 198.561 51.1015 189.745 46.0256ZM178.482 140.397C178.482 150.549 173.046 159.949 164.228 165.025L116.349 192.544C107.532 197.62 96.6356 197.62 87.8182 192.544L39.9618 165.025C31.1443 159.949 25.7076 150.571 25.7076 140.397V85.3356C25.7076 75.1837 31.1443 65.7829 39.9618 60.707L87.8182 33.1878C96.6356 28.1119 107.532 28.1119 116.349 33.1878L164.206 60.707C173.024 65.7829 178.46 75.161 178.46 85.3356V140.397H178.482Z" fill="#4D3EFC"/>
<path d="M155 124.189V101.564C155 89.7276 148.673 78.7791 138.37 72.861L118.702 61.5482C108.423 55.6301 95.745 55.6301 85.4427 61.5482L65.7749 72.861C55.4953 78.7791 49.1451 89.7276 49.1451 101.564V124.189C49.1451 136.026 55.4726 146.974 65.7749 152.892L85.4427 164.205C95.7221 170.122 108.4 170.122 118.702 164.205L138.37 152.892C148.673 146.951 155 136.026 155 124.189Z" fill="#4D3EFC"/>
</svg>
