<svg width="140" height="37" viewBox="0 0 140 37" fill="none" xmlns="http://www.w3.org/2000/svg">
<g clip-path="url(#clip0)">
<path d="M25.098 10.259L10.1173 25.2364C9.85647 25.4972 9.43383 25.4972 9.17628 25.2364L0.195149 16.2553C-0.0657005 15.9944 -0.0657005 15.5718 0.195149 15.3142L15.1659 0.340168C15.4268 0.079319 15.8494 0.079319 16.1069 0.340168L25.0947 9.3279C25.3522 9.58545 25.3522 10.0015 25.098 10.259Z" fill="#2DCD69"/>
<path d="M25.3059 20.432L9.14981 25.2098L0.181885 16.2419L16.4305 11.5532L25.3059 20.432Z" fill="url(#paint0_linear)"/>
<path d="M25.8176 21.6605L10.8402 36.6379C10.5794 36.8987 10.1567 36.8987 9.89918 36.6379L0.918049 27.6567C0.6572 27.3959 0.6572 26.9733 0.918049 26.7157L15.8888 11.745C16.1497 11.4841 16.5723 11.4841 16.8298 11.745L25.8176 20.7327C26.0718 20.9869 26.0718 21.403 25.8176 21.6605Z" fill="#2DCD69"/>
<path d="M29.6907 21.7662C29.6907 18.7813 31.3581 17.0049 34.1383 17.0049C36.3803 17.0049 37.8992 18.1737 38.3449 20.2275H36.826C36.4199 18.9662 35.4921 18.2464 34.1383 18.2464C32.3223 18.2464 31.2492 19.5605 31.2492 21.7662C31.2492 23.9884 32.3223 25.286 34.1383 25.286C35.5647 25.286 36.5289 24.4903 36.8822 23.1167H38.401C37.9949 25.286 36.4727 26.544 34.1383 26.544C31.3581 26.5473 29.6907 24.7709 29.6907 21.7662Z" fill="#153D3B"/>
<path d="M39.0483 21.7662C39.0483 18.7813 40.7356 17.0049 43.5521 17.0049C46.3686 17.0049 48.0361 18.7846 48.0361 21.7662C48.0361 24.7676 46.3686 26.5473 43.5521 26.5473C40.7356 26.5473 39.0483 24.7709 39.0483 21.7662ZM46.4974 21.7662C46.4974 19.5605 45.4045 18.2464 43.5521 18.2464C41.6998 18.2464 40.6068 19.5605 40.6068 21.7662C40.6068 23.9884 41.6998 25.286 43.5521 25.286C45.4045 25.2893 46.4974 23.9917 46.4974 21.7662Z" fill="#153D3B"/>
<path d="M61.1938 18.3223V23.6779C61.1938 24.6982 61.8046 25.2893 62.8613 25.2893C63.3235 25.2893 63.8056 25.177 64.1754 24.9921V26.1775C63.6933 26.3987 63.0263 26.5473 62.3792 26.5473C60.6754 26.5473 59.6749 25.527 59.6749 23.7671V18.319H58.1924V17.1897H59.7872V14.0034H61.1938L61.1971 17.1897H64.3273V18.319H61.1938V18.3223Z" fill="#153D3B"/>
<path d="M75.8477 23.4534H78.126C78.126 24.4902 78.8491 25.101 80.0708 25.101C81.2561 25.101 81.9429 24.6553 81.9429 23.8793C81.9429 22.8987 80.85 22.7105 79.6283 22.509C78.017 22.2482 76.0887 21.9345 76.0887 19.8048C76.0887 18.0449 77.5712 16.9883 80.0741 16.9883C82.5571 16.9883 84.0396 18.1175 84.0396 20.0458H81.7613C81.7613 19.0652 81.1505 18.5071 80.0741 18.5071C79.0538 18.5071 78.4429 18.9133 78.4429 19.6001C78.4429 20.4355 79.4632 20.6005 80.6486 20.8053C82.2962 21.0826 84.3005 21.4161 84.3005 23.602C84.3005 25.5105 82.7255 26.6595 80.0741 26.6595C77.4028 26.6595 75.8477 25.4741 75.8477 23.4534Z" fill="#2DCD69"/>
<path d="M85.6875 13.0752H88.1342V15.3898H85.6875V13.0752ZM85.6875 17.1728H88.1342V26.4743H85.6875V17.1728Z" fill="#2DCD69"/>
<path d="M117.653 12.207H120.099V26.4745H117.653V12.207Z" fill="#2DCD69"/>
<path d="M130.715 22.0995H123.933C124.026 23.8033 124.841 24.8037 126.155 24.8037C127.304 24.8037 128.1 24.1731 128.341 23.1561H130.712C130.379 25.3618 128.675 26.6594 126.152 26.6594C123.263 26.6594 121.556 24.8632 121.556 21.8221C121.556 18.7646 123.26 16.9849 126.152 16.9849C129.005 16.9849 130.712 18.7646 130.712 21.8221V22.0995H130.715ZM123.953 21.2674H128.325C128.176 19.7122 127.38 18.8207 126.155 18.8207C124.917 18.8207 124.118 19.7089 123.953 21.2674Z" fill="#2DCD69"/>
<path d="M131.55 23.4534H133.829C133.829 24.4902 134.552 25.101 135.773 25.101C136.959 25.101 137.646 24.6553 137.646 23.8793C137.646 22.8987 136.553 22.7105 135.331 22.509C133.72 22.2482 131.791 21.9345 131.791 19.8048C131.791 18.0449 133.274 16.9883 135.777 16.9883C138.26 16.9883 139.742 18.1175 139.742 20.0458H137.464C137.464 19.0652 136.853 18.5071 135.777 18.5071C134.756 18.5071 134.146 18.9133 134.146 19.6001C134.146 20.4355 135.166 20.6005 136.351 20.8053C137.999 21.0826 140.003 21.4161 140.003 23.602C140.003 25.5105 138.428 26.6595 135.777 26.6595C133.105 26.6595 131.55 25.4741 131.55 23.4534Z" fill="#2DCD69"/>
<path d="M101.622 16.9849C100.014 16.9849 98.9905 17.9523 98.7627 19.6396H98.6207C98.373 17.9886 97.2801 16.9849 95.5796 16.9849C94.0575 16.9849 93.024 17.8202 92.6938 19.2896H92.5419V17.1698H90.0952V26.4712H92.5419V21.3401C92.5419 19.8212 93.265 18.9132 94.5065 18.9132C95.5995 18.9132 96.2301 19.6165 96.2301 20.8217V26.4745H98.6768V21.3401C98.6768 19.8212 99.3999 18.9132 100.622 18.9132C101.715 18.9132 102.362 19.6165 102.362 20.8217V26.4745H104.808V20.7127C104.812 18.3584 103.623 16.9849 101.622 16.9849Z" fill="#2DCD69"/>
<path d="M112.462 16.9849C110.765 16.9849 109.626 17.8268 109.266 19.2896H109.107V17.1698H106.661V30.7339H109.107V24.2556H109.249C109.586 25.7811 110.732 26.6594 112.462 26.6594C114.797 26.6594 116.187 24.8632 116.187 21.8221C116.19 18.7844 114.8 16.9849 112.462 16.9849ZM111.333 24.7146C109.85 24.7146 108.979 23.5292 108.979 21.8254C108.979 20.1018 109.85 18.9363 111.333 18.9363C112.815 18.9363 113.687 20.0094 113.687 21.8254C113.687 23.6382 112.815 24.7146 111.333 24.7146Z" fill="#2DCD69"/>
<path d="M54.1313 17.0049C52.5431 17.0049 51.4733 17.8337 51.1332 19.2766H50.9813V17.1898H49.4624V26.3624H50.9813V21.3403C50.9813 19.3954 51.9454 18.2464 53.5931 18.2464C55.0756 18.2464 55.9275 19.1544 55.9275 20.6931V26.3624H57.4464V20.6568C57.4497 18.3587 56.2247 17.0049 54.1313 17.0049Z" fill="#153D3B"/>
<path d="M71.9216 17.1898V19.2766H71.7829C71.4428 17.8337 70.2607 17.0049 68.4942 17.0049C66.0475 17.0049 64.6013 18.7846 64.6013 21.7662C64.6013 24.7676 66.0475 26.5473 68.4942 26.5473C70.2541 26.5473 71.4362 25.7087 71.7796 24.2723H71.9216V26.3624H73.4405V17.1898H71.9216ZM71.8886 20.1912H71.8853C71.8853 20.1879 71.8853 20.1813 71.8853 20.178L71.8886 20.1912ZM69.0853 25.2893C67.2329 25.2893 66.1565 23.9917 66.1565 21.7695C66.1565 19.5638 67.2329 18.2497 69.0853 18.2497C70.9574 18.2497 72.0305 19.6035 72.0305 21.7695C72.0305 23.9355 70.9574 25.2893 69.0853 25.2893Z" fill="#153D3B"/>
</g>
<defs>
<linearGradient id="paint0_linear" x1="-1.00987" y1="18.6417" x2="23.4654" y2="18.1809" gradientUnits="userSpaceOnUse">
<stop/>
<stop offset="1" stop-color="#2DCD69"/>
</linearGradient>
<clipPath id="clip0">
<rect width="140" height="36.9811" fill="white"/>
</clipPath>
</defs>
</svg>
