<svg xmlns="http://www.w3.org/2000/svg" width="67.773" height="50" viewBox="0 0 67.773 50"><rect width="2.81" height="14.048" transform="translate(0.263 35.776)" fill="#4040f4"/><path d="M51.826,60.255v-3h3.811v-2.81H51.826V51.826h4.285v-2.81H49.016V63.065h7.094v-2.81Z" transform="translate(-48.823 -49.016)" fill="#4040f4"/><path d="M106.594,60.711v-11.7h-2.81V60.29c0,.228-.07.333-.246.333H101.5c-.175,0-.246-.105-.246-.333V49.016h-2.81v11.7a2.518,2.518,0,0,0,2.529,2.529h3.091a2.518,2.518,0,0,0,2.529-2.529" transform="translate(-89.484 -49.016)" fill="#4040f4"/><path d="M83.717,250.7l.123,11.238h-.175L82.014,250.7H77.325v14.048h2.81l-.123-11.238h.158l1.686,11.238h4.671V250.7Z" transform="translate(-72.11 -214.921)" fill="#4040f4"/><path d="M145.34,264.324l2.213-13.627h-2.81l-1.44,11.238c-.035.263-.123.4-.263.4H142.9c-.14,0-.228-.141-.263-.4L141.216,250.7h-2.88l2.23,13.627a.8.8,0,0,0,.755.6h3.264a.843.843,0,0,0,.755-.6" transform="translate(-122.298 -214.921)" fill="#4040f4"/><path d="M206.526,250.7h-7.094v14.048h7.094v-2.81h-4.285v-3h3.811v-2.809h-3.811v-2.617h4.285Z" transform="translate(-172.557 -214.921)" fill="#4040f4"/><path d="M255.61,261.9v-1.352a5.281,5.281,0,0,0-2.6-4.829c-1.264-.65-2.406-1.194-2.406-2.125v-.632c0-.176.088-.246.263-.246h1.791c.176,0,.246.07.246.246v1.123h2.81v-1.456a2.518,2.518,0,0,0-2.529-2.529h-2.88a2.518,2.518,0,0,0-2.511,2.528v.966a4.038,4.038,0,0,0,2.213,3.705c1.458.79,2.792,1.493,2.792,3.249v1.019c0,.176-.088.246-.263.246h-1.809c-.176,0-.246-.07-.246-.246V259.3h-2.81v2.6a2.518,2.518,0,0,0,2.529,2.529h2.88a2.518,2.518,0,0,0,2.529-2.529" transform="translate(-212.24 -214.432)" fill="#4040f4"/><path d="M302.043,253.507v11.238h2.81V253.507h2.827V250.7h-8.5v2.81Z" transform="translate(-254.611 -214.921)" fill="#4040f4"/><rect width="2.81" height="14.048" transform="translate(54.711 35.776)" fill="#4040f4"/><path d="M386.363,264.745V258.81h2.371a1.081,1.081,0,0,1,.246.808v5.127h2.81v-5.233a2.249,2.249,0,0,0-1.475-2.107,2.288,2.288,0,0,0,1.352-2.072V252.8a2.113,2.113,0,0,0-2.107-2.107h-6.006v14.048Zm0-8.745v-2.739h2.3c.123,0,.176.088.176.263v1.844c0,.369-.088.527-.281.632Z" transform="translate(-324.016 -214.921)" fill="#4040f4"/><path d="M114.448,160.988v-11.7h-2.81v11.274c0,.228-.07.334-.246.334h-2.037c-.175,0-.246-.105-.246-.334V149.293H106.3v11.7a2.518,2.518,0,0,0,2.529,2.529h3.091a2.518,2.518,0,0,0,2.529-2.529" transform="translate(-95.945 -131.505)" fill="#4040f4"/><path d="M163.317,149.294v14.048h7.094v-2.81h-4.285v-3h3.811v-2.81h-3.811V152.1h4.285v-2.81Z" transform="translate(-142.848 -131.505)" fill="#4040f4"/><path d="M218.964,158.215v5.127h2.81v-5.233A2.248,2.248,0,0,0,220.3,156a2.288,2.288,0,0,0,1.352-2.072V151.4a2.113,2.113,0,0,0-2.107-2.107h-6.006v14.048h2.81v-5.935h2.37a1.081,1.081,0,0,1,.246.808m-2.616-3.617v-2.74h2.3c.123,0,.176.088.176.263v1.844c0,.369-.088.527-.281.632Z" transform="translate(-184.16 -131.506)" fill="#4040f4"/><path d="M278.638,160.5v-9.272a2.518,2.518,0,0,0-2.529-2.529h-3.091a2.518,2.518,0,0,0-2.529,2.529V160.5a2.518,2.518,0,0,0,2.529,2.529h3.091a2.518,2.518,0,0,0,2.529-2.529m-5.092-.088c-.176,0-.246-.07-.246-.246v-8.6c0-.176.07-.246.246-.246h2.019c.176,0,.263.07.263.246v8.6c0,.176-.088.246-.263.246Z" transform="translate(-231.01 -131.016)" fill="#4040f4"/><path d="M56.05,160.836a2.563,2.563,0,0,0,.025-.336v-9.272a2.518,2.518,0,0,0-2.529-2.529H50.456a2.518,2.518,0,0,0-2.529,2.529V160.5a2.518,2.518,0,0,0,2.517,2.528h6.572v-2.192Zm-5.068-.424c-.176,0-.246-.07-.246-.246v-8.6c0-.176.07-.246.246-.246H53c.176,0,.263.07.263.246v8.6c0,.176-.088.246-.263.246Z" transform="translate(-47.927 -131.016)" fill="#4040f4"/></svg>