<svg width="532" height="204" viewBox="0 0 532 204" fill="none" xmlns="http://www.w3.org/2000/svg">
<g opacity="0.999048">
<path d="M445.218 68.0527C444.796 61.8382 441.047 56.4166 436.433 52.4691C426.845 42.8806 417.275 33.274 407.673 23.6995C403.946 23.4905 401.894 28.7117 398.883 30.6886C396.243 32.2529 395.606 35.1252 398.576 36.7279C407.283 45.5421 416.2 54.1644 424.772 63.1021C427.319 66.3804 427.274 71.5413 424.031 74.3574C422.536 76.903 418.082 78.5916 418.229 81.4957C420.852 85.8524 423.323 90.309 425.892 94.702C431.19 89.2229 436.869 84.0819 441.907 78.3694C444.026 75.375 445.205 71.7225 445.218 68.0527Z" fill="#C3D200"/>
<path d="M508.277 10.1968C505.169 7.12811 502.144 3.97487 498.983 0.958984C495.542 1.06889 493.698 5.53241 490.948 7.44626C483.641 14.6892 476.488 22.1036 469.054 29.2077C465.78 31.8073 460.691 31.7112 457.817 28.5402C455.248 27.0005 453.665 22.6171 450.642 22.6169C446.993 24.9806 443.105 27.0116 439.363 29.2455C437.864 29.9178 436.753 30.6386 438.899 31.7859C443.86 36.6209 448.545 41.7698 453.733 46.3547C458.619 49.9713 465.454 50.7069 470.897 47.9023C476.528 45.2186 480.21 39.937 484.722 35.8295C492.616 27.9253 500.525 20.0356 508.402 12.1146C508.846 11.5621 508.788 10.6872 508.277 10.1968H508.277Z" fill="#C3D200"/>
<path d="M482.422 68.568C482.868 74.3068 485.982 79.5101 490.279 83.2237C500.178 93.1201 510.056 103.038 519.968 112.921C521.442 113.956 522.507 112.042 523.473 111.212C526.009 108.632 528.635 106.129 531.115 103.501C531.919 101.897 529.877 100.968 529.061 99.8992C520.481 91.2827 511.837 82.719 503.297 74.0688C500.891 71.2525 500.135 66.958 502.331 63.7928C504.51 61.0021 507.254 58.6887 509.692 56.1166C509.803 55.2873 508.722 54.3012 508.381 53.4125C506.171 49.5823 503.961 45.7521 501.751 41.9219C496.652 47.0725 491.451 52.1342 486.423 57.3466C483.872 60.4946 482.438 64.5162 482.422 68.568Z" fill="#C3D200"/>
<path d="M419.366 126.421C422.473 129.491 425.505 132.649 428.66 135.663C430.264 136.469 431.192 134.424 432.261 133.607C440.87 125.019 449.429 116.37 458.071 107.822C460.775 105.543 464.827 104.668 467.954 106.63C470.6 108.393 472.583 110.966 474.906 113.121C475.628 114.052 476.379 114.749 477.363 113.69C481.639 111.218 485.916 108.747 490.192 106.276C485.047 101.173 479.99 95.97 474.784 90.9375C470.243 87.2327 463.718 85.7494 458.219 88.1499C452.808 89.9239 449.339 94.5648 445.373 98.3415C436.641 107.123 427.817 115.827 419.143 124.658C418.805 125.209 418.902 125.971 419.366 126.421H419.366Z" fill="#C3D200"/>
</g>
<path d="M19.7438 184.381C16.9046 187.446 12.5899 186.866 8.83358 186.891C7.62263 187.147 5.60949 186.358 4.94247 187.323C3.52093 192.63 2.09939 197.937 0.677856 203.245C8.4395 203.176 16.2182 203.393 23.9662 203.115C30.6704 202.304 36.8552 197.805 39.0699 191.321C41.5658 185.435 40.4718 178.983 40.7088 172.783C40.6796 148.528 40.7672 124.265 40.665 100.016C39.9884 98.1221 37.574 99.1216 36.0738 98.8724C31.8783 98.9396 27.6503 98.738 23.4749 98.9731C21.8117 99.8219 22.7528 102.033 22.4898 103.51C22.3215 128.603 22.178 153.702 21.9944 178.79C21.7904 180.817 21.0006 182.779 19.7438 184.381Z" fill="#121212"/>
<path d="M106.499 118.974C113.952 128.939 113.899 143.871 106.036 153.576C99.0287 161.141 86.2075 161.858 78.3996 155.122C73.3476 150.764 71.1888 143.807 70.7543 137.326C70.5318 130.252 72.6201 122.651 77.6947 117.542C85.7335 110.023 99.2368 110.688 106.499 118.974ZM70.5949 102.69C61.1742 107.41 54.8542 116.929 52.9915 127.174C50.3453 140.353 53.541 155.572 63.8897 164.738C72.7626 172.492 85.3016 174.943 96.7822 173.761C107.41 172.616 118.151 167.787 124.148 158.601C132.757 145.105 132.668 126.467 123.865 113.086C117.118 103.025 104.776 98.4414 93.0671 98.0082C85.3423 97.7154 77.5611 99.3432 70.5949 102.69Z" fill="#121212"/>
<path d="M141.91 100.381C141.91 124.646 141.91 148.911 141.91 173.176C147.974 173.176 154.038 173.176 160.102 173.176C160.095 148.851 160.116 124.524 160.091 100.198C159.865 98.5476 157.961 98.8864 156.763 98.8749C152.191 98.9062 147.609 98.8122 143.044 98.9218C142.39 99.0782 141.9 99.7093 141.91 100.381Z" fill="#121212"/>
<path d="M212.252 112.421C218.845 112.025 225.745 115.988 227.645 122.532C230.38 130.425 229.074 138.884 229.374 147.065C229.374 155.765 229.374 164.464 229.374 173.164C235.439 173.164 241.503 173.164 247.567 173.164C247.453 157.834 247.807 142.493 247.365 127.17C246.782 118.478 244.146 108.978 236.646 103.729C227.142 96.6848 213.591 96.0946 203.147 101.359C199.3 103.508 196.182 106.735 193.528 110.209C191.796 106.666 192.667 100.682 188.991 98.8382C184.749 99.0181 180.491 98.6998 176.247 98.9743C174.372 100.633 175.598 103.537 175.281 105.808C175.281 128.264 175.281 150.72 175.281 173.176C181.344 173.176 187.408 173.176 193.471 173.176C193.552 159.002 193.303 144.816 193.605 130.648C194.402 122.995 198.992 114.884 206.941 112.993C208.666 112.525 210.466 112.33 212.252 112.421Z" fill="#121212"/>
<path d="M290.987 97.6571C280.678 97.499 269.127 100.116 262.56 108.726C258.08 114.731 256.799 123.484 260.39 130.211C263.966 136.509 271.392 139.03 278.094 140.344C286.076 142.475 294.518 142.233 302.45 144.518C305.815 145.529 308.426 148.796 307.957 152.392C307.918 156.528 304.417 159.675 300.61 160.623C293.246 162.924 284.395 162.49 278.194 157.493C275.909 155.849 275.105 153.07 273.826 150.782C272.287 150.072 270.443 150.633 268.782 150.454C265.207 150.522 261.599 150.319 258.044 150.556C255.78 151.961 258.127 155.115 258.467 157.002C261.672 165.38 270.116 170.121 278.324 172.47C286.81 174.804 295.911 174.584 304.462 172.71C313.422 170.838 322.538 165.004 324.925 155.688C326.55 148.668 325.329 139.842 318.885 135.574C310.472 130.693 300.733 128.837 291.138 128.124C286.311 127.363 280.505 127.549 276.936 123.66C273.887 119.552 276.637 113.313 281.257 111.749C288.072 108.73 296.635 109.14 302.802 113.492C305.035 114.886 305.896 117.445 307.218 119.504C308.827 120.159 310.702 119.629 312.416 119.8C315.929 119.735 319.472 119.929 322.966 119.703C325.247 118.334 322.852 115.225 322.444 113.399C318.925 105.086 310.056 100.956 301.798 98.8773C298.263 98.0248 294.623 97.6137 290.987 97.6571Z" fill="#121212"/>
<g opacity="0.998087">
<path d="M344.781 98.6139C343.862 98.6506 342.894 98.8243 342.061 98.6757C337.838 98.7434 333.585 98.5396 329.382 98.7747C327.342 99.8186 329.264 102.12 329.623 103.621L356.928 174.976C355.278 179.336 353.838 184.948 348.706 186.263C345.156 187.093 341.464 186.523 337.845 186.69C336.393 192.141 334.938 197.595 333.487 203.047C341.026 202.968 348.584 203.21 356.112 202.898C360.751 202.402 364.953 199.826 367.251 195.721C371.94 187.05 374.896 177.598 378.613 168.491C387.396 145.778 396.297 123.098 405.008 100.363C405.105 98.1308 402.362 98.7193 400.929 98.6758C396.236 98.7445 391.513 98.539 386.841 98.7747C385.284 99.7901 385.449 102.087 384.646 103.64C378.728 121.553 372.81 139.469 366.892 157.383C360.317 138.05 353.854 118.672 347.21 99.3681C346.569 98.6776 345.699 98.5773 344.781 98.6139L344.781 98.6139Z" fill="#121212"/>
</g>
</svg>
